<mxfile host="65bd71144e">
    <diagram id="ZrqP5yUlCUV18TaNxSd7" name="Page-1">
        <mxGraphModel dx="549" dy="607" grid="1" gridSize="10" guides="1" tooltips="1" connect="1" arrows="1" fold="1" page="1" pageScale="1" pageWidth="850" pageHeight="1100" background="#333333" math="0" shadow="1">
            <root>
                <mxCell id="0"/>
                <mxCell id="1" parent="0"/>
            </root>
        </mxGraphModel>
    </diagram>
</mxfile>